<?xml version="1.0" encoding="UTF-8"?>
<svg xmlns="http://www.w3.org/2000/svg" xmlns:xlink="http://www.w3.org/1999/xlink" viewBox="0 0 48 48" width="48px" height="48px">
<g id="surface104945000">
<path style=" stroke:none;fill-rule:nonzero;fill:rgb(96.078432%,42.352942%,42.352942%);fill-opacity:1;" d="M 24 48 C 10.746094 48 0 37.253906 0 24 C 0 10.746094 10.746094 0 24 0 C 37.253906 0 48 10.746094 48 24 C 48 37.253906 37.253906 48 24 48 Z M 24 48 "/>
<path style=" stroke:none;fill-rule:nonzero;fill:rgb(100%,100%,100%);fill-opacity:1;" d="M 11.945312 10.222656 C 11.242188 10.222656 10.613281 10.648438 10.351562 11.296875 C 10.085938 11.945312 10.242188 12.6875 10.746094 13.175781 L 21.566406 24 L 10.746094 34.824219 C 10.296875 35.253906 10.113281 35.894531 10.269531 36.5 C 10.429688 37.101562 10.898438 37.570312 11.5 37.730469 C 12.105469 37.886719 12.746094 37.707031 13.175781 37.257812 L 24 26.433594 L 34.824219 37.257812 C 35.253906 37.707031 35.894531 37.886719 36.5 37.730469 C 37.101562 37.570312 37.570312 37.101562 37.730469 36.5 C 37.886719 35.894531 37.703125 35.253906 37.253906 34.824219 L 26.433594 24 L 37.253906 13.175781 C 37.765625 12.683594 37.917969 11.925781 37.640625 11.273438 C 37.363281 10.621094 36.714844 10.203125 36.007812 10.222656 C 35.558594 10.238281 35.136719 10.425781 34.824219 10.746094 L 24 21.570312 L 13.175781 10.746094 C 12.851562 10.414062 12.40625 10.222656 11.945312 10.222656 Z M 11.945312 10.222656 "/>
</g>
</svg>
