<?xml version="1.0" encoding="UTF-8"?>
<svg xmlns="http://www.w3.org/2000/svg" xmlns:xlink="http://www.w3.org/1999/xlink" viewBox="0 0 48 48" width="48px" height="48px">
<g id="surface100889004">
<path style=" stroke:none;fill-rule:nonzero;fill:rgb(96.078432%,42.352942%,42.352942%);fill-opacity:1;" d="M 24 48 C 10.746094 48 0 37.253906 0 24 C 0 10.746094 10.746094 0 24 0 C 37.253906 0 48 10.746094 48 24 C 48 37.253906 37.253906 48 24 48 Z M 24 48 "/>
<path style=" stroke:none;fill-rule:nonzero;fill:rgb(100%,100%,100%);fill-opacity:1;" d="M 22.113281 8.199219 C 21.296875 8.199219 20.515625 8.523438 19.9375 9.101562 L 19.261719 9.78125 L 11.359375 9.78125 C 10.789062 9.773438 10.261719 10.070312 9.972656 10.5625 C 9.6875 11.054688 9.6875 11.664062 9.972656 12.15625 C 10.261719 12.648438 10.789062 12.949219 11.359375 12.941406 L 36.640625 12.941406 C 37.210938 12.949219 37.738281 12.648438 38.027344 12.15625 C 38.3125 11.664062 38.3125 11.054688 38.027344 10.5625 C 37.738281 10.070312 37.210938 9.773438 36.640625 9.78125 L 28.738281 9.78125 L 28.0625 9.101562 C 27.484375 8.523438 26.703125 8.199219 25.886719 8.199219 Z M 11.9375 16.101562 L 14.351562 37.054688 C 14.558594 38.621094 15.90625 39.800781 17.484375 39.800781 L 30.515625 39.800781 C 32.089844 39.800781 33.441406 38.621094 33.648438 37.042969 L 36.0625 16.101562 Z M 11.9375 16.101562 "/>
</g>
</svg>
