<?xml version="1.0" encoding="UTF-8"?>
<svg xmlns="http://www.w3.org/2000/svg" xmlns:xlink="http://www.w3.org/1999/xlink" viewBox="0 0 48 48" width="48px" height="48px">
<g id="surface100829388">
<path style=" stroke:none;fill-rule:nonzero;fill:rgb(90.196079%,63.529414%,23.529412%);fill-opacity:1;" d="M 24 48 C 10.746094 48 0 37.253906 0 24 C 0 10.746094 10.746094 0 24 0 C 37.253906 0 48 10.746094 48 24 C 48 37.253906 37.253906 48 24 48 Z M 24 48 "/>
<path style=" stroke:none;fill-rule:nonzero;fill:rgb(100%,100%,100%);fill-opacity:1;" d="M 35.542969 7.988281 C 34.398438 7.988281 33.253906 8.425781 32.382812 9.296875 L 30.53125 11.148438 L 36.851562 17.46875 L 38.703125 15.617188 C 40.445312 13.875 40.445312 11.042969 38.703125 9.296875 C 37.828125 8.425781 36.683594 7.988281 35.542969 7.988281 Z M 28.160156 13.519531 L 9.988281 31.691406 L 9.988281 38.011719 L 16.308594 38.011719 L 34.480469 19.839844 Z M 28.160156 13.519531 "/>
</g>
</svg>
