<?xml version="1.0" encoding="UTF-8"?>
<svg xmlns="http://www.w3.org/2000/svg" xmlns:xlink="http://www.w3.org/1999/xlink" viewBox="0 0 48 48" width="48px" height="48px">
<g id="surface104718017">
<path style=" stroke:none;fill-rule:nonzero;fill:rgb(100%,100%,100%);fill-opacity:1;" d="M 24 48 C 10.746094 48 0 37.253906 0 24 C 0 10.746094 10.746094 0 24 0 C 37.253906 0 48 10.746094 48 24 C 48 37.253906 37.253906 48 24 48 Z M 24 48 "/>
<path style=" stroke:none;fill-rule:nonzero;fill:rgb(40.392157%,76.078433%,22.745098%);fill-opacity:1;" d="M 24 0 C 10.746094 0 0 10.746094 0 24 C 0 37.253906 10.746094 48 24 48 C 37.253906 48 48 37.253906 48 24 C 48 10.746094 37.253906 0 24 0 Z M 37.695312 18.496094 L 20.898438 35.296875 C 20.429688 35.765625 19.8125 36 19.199219 36 C 18.585938 36 17.972656 35.765625 17.503906 35.296875 L 10.304688 28.097656 C 9.363281 27.160156 9.363281 25.640625 10.304688 24.703125 C 11.242188 23.765625 12.757812 23.765625 13.695312 24.703125 L 19.199219 30.207031 L 34.304688 15.101562 C 35.242188 14.164062 36.757812 14.164062 37.695312 15.101562 C 38.636719 16.042969 38.636719 17.558594 37.695312 18.496094 Z M 37.695312 18.496094 "/>
</g>
</svg>
